<svg width="25" height="20" viewBox="0 0 25 20" fill="none" xmlns="http://www.w3.org/2000/svg">
<path d="M9.15728 10C9.15728 10.9112 9.49498 11.785 10.0961 12.4293C10.6972 13.0736 11.5125 13.4356 12.3626 13.4356C13.2127 13.4356 14.028 13.0736 14.6291 12.4293C15.2302 11.785 15.5679 10.9112 15.5679 10C15.5679 9.08883 15.2302 8.21497 14.6291 7.57068C14.028 6.92638 13.2127 6.56442 12.3626 6.56442C11.5125 6.56442 10.6972 6.92638 10.0961 7.57068C9.49498 8.21497 9.15728 9.08883 9.15728 10ZM24.7889 9.20859C22.0758 3.08282 17.9747 0 12.4771 0C6.97653 0 2.87832 3.08282 0.16526 9.21166C0.0564381 9.45864 0 9.72839 0 10.0015C0 10.2747 0.0564381 10.5444 0.16526 10.7914C2.87832 16.9172 6.97939 20 12.4771 20C17.9776 20 22.0758 16.9172 24.7889 10.7883C25.0092 10.2914 25.0092 9.71472 24.7889 9.20859ZM12.3626 15.3988C9.58084 15.3988 7.32568 12.9816 7.32568 10C7.32568 7.01841 9.58084 4.60123 12.3626 4.60123C15.1443 4.60123 17.3995 7.01841 17.3995 10C17.3995 12.9816 15.1443 15.3988 12.3626 15.3988Z" fill="#104AA1"/>
</svg>
