<svg width="700" height="320" viewBox="0 0 700 320" fill="none" xmlns="http://www.w3.org/2000/svg">
<path d="M73.2 93L56 37H55.6C55.6667 38.3333 55.7667 40.3333 55.9 43C56.0333 45.6667 56.1667 48.5333 56.3 51.6C56.4333 54.6 56.5 57.3333 56.5 59.8V93H43V21.6H63.6L80.5 76.2H80.8L98.7 21.6H119.3V93H105.2V59.2C105.2 56.9333 105.233 54.3333 105.3 51.4C105.433 48.4667 105.533 45.7 105.6 43.1C105.733 40.4333 105.833 38.4333 105.9 37.1H105.5L87.1 93H73.2ZM203.136 57.2C203.136 64.6 201.903 71.0667 199.436 76.6C197.036 82.0667 193.336 86.3333 188.336 89.4C183.336 92.4667 176.936 94 169.136 94C161.403 94 155.003 92.4667 149.936 89.4C144.936 86.3333 141.203 82.0333 138.736 76.5C136.336 70.9667 135.136 64.5 135.136 57.1C135.136 49.7 136.336 43.2667 138.736 37.8C141.203 32.3333 144.936 28.1 149.936 25.1C155.003 22.0333 161.436 20.5 169.236 20.5C176.969 20.5 183.336 22.0333 188.336 25.1C193.336 28.1 197.036 32.3667 199.436 37.9C201.903 43.3667 203.136 49.8 203.136 57.2ZM151.036 57.2C151.036 64.6667 152.469 70.5667 155.336 74.9C158.203 79.1667 162.803 81.3 169.136 81.3C175.603 81.3 180.236 79.1667 183.036 74.9C185.836 70.5667 187.236 64.6667 187.236 57.2C187.236 49.6667 185.836 43.7667 183.036 39.5C180.236 35.2333 175.636 33.1 169.236 33.1C162.836 33.1 158.203 35.2333 155.336 39.5C152.469 43.7667 151.036 49.6667 151.036 57.2ZM249.226 33.2C243.426 33.2 238.992 35.3667 235.926 39.7C232.859 44.0333 231.326 49.9667 231.326 57.5C231.326 65.1 232.726 71 235.526 75.2C238.392 79.3333 242.959 81.4 249.226 81.4C252.159 81.4 255.059 81.0667 257.926 80.4C260.859 79.7333 264.026 78.8 267.426 77.6V90.3C264.292 91.5667 261.192 92.5 258.126 93.1C255.059 93.7 251.626 94 247.826 94C240.492 94 234.426 92.5 229.626 89.5C224.892 86.4333 221.392 82.1667 219.126 76.7C216.859 71.1667 215.726 64.7333 215.726 57.4C215.726 50.2 217.026 43.8333 219.626 38.3C222.226 32.7667 225.992 28.4333 230.926 25.3C235.926 22.1667 242.026 20.6 249.226 20.6C252.759 20.6 256.292 21.0667 259.826 22C263.426 22.8667 266.859 24.0667 270.126 25.6L265.226 37.9C262.559 36.6333 259.859 35.5333 257.126 34.6C254.459 33.6667 251.826 33.2 249.226 33.2ZM341.798 93H324.598L298.698 56.8V93H283.598V21.6H298.698V56.2L324.298 21.6H340.398L314.398 55.9L341.798 93ZM373.985 21.6C383.518 21.6 390.718 22.9333 395.585 25.6C400.452 28.2667 402.885 32.9667 402.885 39.7C402.885 43.7667 401.918 47.2 399.985 50C398.118 52.8 395.418 54.5 391.885 55.1V55.6C394.285 56.0667 396.452 56.9 398.385 58.1C400.318 59.3 401.852 61.0333 402.985 63.3C404.118 65.5667 404.685 68.5667 404.685 72.3C404.685 78.7667 402.352 83.8333 397.685 87.5C393.018 91.1667 386.618 93 378.485 93H351.785V21.6H373.985ZM375.685 49.9C380.085 49.9 383.118 49.2 384.785 47.8C386.518 46.4 387.385 44.3667 387.385 41.7C387.385 38.9667 386.385 37 384.385 35.8C382.385 34.6 379.218 34 374.885 34H366.885V49.9H375.685ZM366.885 61.9V80.5H376.785C381.318 80.5 384.485 79.6333 386.285 77.9C388.085 76.1 388.985 73.7333 388.985 70.8C388.985 68.1333 388.052 66 386.185 64.4C384.385 62.7333 381.085 61.9 376.285 61.9H366.885ZM461.073 93H419.973V21.6H461.073V34H435.073V49.7H459.273V62.1H435.073V80.5H461.073V93Z" fill="#104AA2"/>
<path d="M283 101H683V200H283V101Z" fill="#BD181E"/>
<rect y="200" width="683" height="120" fill="#94DFF7"/>
<path d="M67.08 226.74C75.66 226.74 82.14 227.94 86.52 230.34C90.9 232.74 93.09 236.97 93.09 243.03C93.09 246.69 92.22 249.78 90.48 252.3C88.8 254.82 86.37 256.35 83.19 256.89V257.34C85.35 257.76 87.3 258.51 89.04 259.59C90.78 260.67 92.16 262.23 93.18 264.27C94.2 266.31 94.71 269.01 94.71 272.37C94.71 278.19 92.61 282.75 88.41 286.05C84.21 289.35 78.45 291 71.13 291H47.1V226.74H67.08ZM68.61 252.21C72.57 252.21 75.3 251.58 76.8 250.32C78.36 249.06 79.14 247.23 79.14 244.83C79.14 242.37 78.24 240.6 76.44 239.52C74.64 238.44 71.79 237.9 67.89 237.9H60.69V252.21H68.61ZM60.69 263.01V279.75H69.6C73.68 279.75 76.53 278.97 78.15 277.41C79.77 275.79 80.58 273.66 80.58 271.02C80.58 268.62 79.74 266.7 78.06 265.26C76.44 263.76 73.47 263.01 69.15 263.01H60.69ZM148.899 291L144.219 275.7H120.819L116.139 291H101.469L124.149 226.47H140.799L163.569 291H148.899ZM136.299 249.33C135.999 248.31 135.609 247.02 135.129 245.46C134.649 243.9 134.169 242.31 133.689 240.69C133.209 239.07 132.819 237.66 132.519 236.46C132.219 237.66 131.799 239.16 131.259 240.96C130.779 242.7 130.299 244.38 129.819 246C129.399 247.56 129.069 248.67 128.829 249.33L124.239 264.27H140.979L136.299 249.33ZM254.527 291H173.707V226.74H187.297V279.66H207.277V226.74H220.957V279.66H240.937V226.74H254.527V291ZM308.342 226.74C316.922 226.74 323.402 227.94 327.782 230.34C332.162 232.74 334.352 236.97 334.352 243.03C334.352 246.69 333.482 249.78 331.742 252.3C330.062 254.82 327.632 256.35 324.452 256.89V257.34C326.612 257.76 328.562 258.51 330.302 259.59C332.042 260.67 333.422 262.23 334.442 264.27C335.462 266.31 335.972 269.01 335.972 272.37C335.972 278.19 333.872 282.75 329.672 286.05C325.472 289.35 319.712 291 312.392 291H288.362V226.74H308.342ZM309.872 252.21C313.832 252.21 316.562 251.58 318.062 250.32C319.622 249.06 320.402 247.23 320.402 244.83C320.402 242.37 319.502 240.6 317.702 239.52C315.902 238.44 313.052 237.9 309.152 237.9H301.952V252.21H309.872ZM301.952 263.01V279.75H310.862C314.942 279.75 317.792 278.97 319.412 277.41C321.032 275.79 321.842 273.66 321.842 271.02C321.842 268.62 321.002 266.7 319.322 265.26C317.702 263.76 314.732 263.01 310.412 263.01H301.952ZM350.83 291V226.74H364.42V251.4H368.83C374.77 251.4 379.66 252.24 383.5 253.92C387.34 255.6 390.16 257.91 391.96 260.85C393.82 263.79 394.75 267.15 394.75 270.93C394.75 277.29 392.65 282.24 388.45 285.78C384.25 289.26 377.56 291 368.38 291H350.83ZM402.58 291V226.74H416.17V291H402.58ZM368.02 279.84C372.04 279.84 375.19 279.18 377.47 277.86C379.81 276.54 380.98 274.23 380.98 270.93C380.98 267.51 379.78 265.26 377.38 264.18C375.04 263.1 371.71 262.56 367.39 262.56H364.42V279.84H368.02ZM434.393 291V226.74H474.983V237.99H447.983V251.4H453.383C459.443 251.4 464.393 252.24 468.233 253.92C472.133 255.6 475.013 257.91 476.873 260.85C478.733 263.79 479.663 267.15 479.663 270.93C479.663 277.29 477.533 282.24 473.273 285.78C469.073 289.26 462.353 291 453.113 291H434.393ZM452.573 279.84C456.713 279.84 459.953 279.18 462.293 277.86C464.693 276.54 465.893 274.23 465.893 270.93C465.893 267.51 464.603 265.26 462.023 264.18C459.443 263.1 455.933 262.56 451.493 262.56H447.983V279.84H452.573ZM552.106 258.78C552.106 265.44 550.996 271.26 548.776 276.24C546.616 281.16 543.286 285 538.786 287.76C534.286 290.52 528.526 291.9 521.506 291.9C514.546 291.9 508.786 290.52 504.226 287.76C499.726 285 496.366 281.13 494.146 276.15C491.986 271.17 490.906 265.35 490.906 258.69C490.906 252.03 491.986 246.24 494.146 241.32C496.366 236.4 499.726 232.59 504.226 229.89C508.786 227.13 514.576 225.75 521.596 225.75C528.556 225.75 534.286 227.13 538.786 229.89C543.286 232.59 546.616 236.43 548.776 241.41C550.996 246.33 552.106 252.12 552.106 258.78ZM505.216 258.78C505.216 265.5 506.506 270.81 509.086 274.71C511.666 278.55 515.806 280.47 521.506 280.47C527.326 280.47 531.496 278.55 534.016 274.71C536.536 270.81 537.796 265.5 537.796 258.78C537.796 252 536.536 246.69 534.016 242.85C531.496 239.01 527.356 237.09 521.596 237.09C515.836 237.09 511.666 239.01 509.086 242.85C506.506 246.69 505.216 252 505.216 258.78ZM587.936 226.74C596.216 226.74 602.246 228.54 606.026 232.14C609.866 235.68 611.786 240.57 611.786 246.81C611.786 250.53 611.006 254.04 609.446 257.34C607.886 260.58 605.276 263.19 601.616 265.17C598.016 267.15 593.096 268.14 586.856 268.14H581.006V291H567.416V226.74H587.936ZM587.216 237.9H581.006V256.98H585.506C589.346 256.98 592.376 256.23 594.596 254.73C596.876 253.17 598.016 250.68 598.016 247.26C598.016 241.02 594.416 237.9 587.216 237.9ZM639.07 235.02C635.89 249.36 633.64 262.44 632.32 274.26C632.26 274.98 631.96 275.34 631.42 275.34C630.94 275.34 630.58 274.29 630.34 272.19C629.8 267.63 627.88 256.2 624.58 237.9L624.04 234.93C624.46 234.39 625 233.73 625.66 232.95C628.48 229.41 630.43 227.64 631.51 227.64C632.29 227.64 633.04 228 633.76 228.72C634.48 229.44 636.25 231.54 639.07 235.02ZM637.99 285.42C637.99 287.28 637.39 288.81 636.19 290.01C634.99 291.21 633.46 291.81 631.6 291.81C629.74 291.81 628.18 291.21 626.92 290.01C625.66 288.75 625.03 287.19 625.03 285.33C625.03 283.53 625.66 282 626.92 280.74C628.18 279.48 629.74 278.85 631.6 278.85C633.34 278.85 634.84 279.48 636.1 280.74C637.36 282 637.99 283.56 637.99 285.42Z" fill="white"/>
<path d="M340.08 120.74C348.66 120.74 355.14 121.94 359.52 124.34C363.9 126.74 366.09 130.97 366.09 137.03C366.09 140.69 365.22 143.78 363.48 146.3C361.8 148.82 359.37 150.35 356.19 150.89V151.34C358.35 151.76 360.3 152.51 362.04 153.59C363.78 154.67 365.16 156.23 366.18 158.27C367.2 160.31 367.71 163.01 367.71 166.37C367.71 172.19 365.61 176.75 361.41 180.05C357.21 183.35 351.45 185 344.13 185H320.1V120.74H340.08ZM341.61 146.21C345.57 146.21 348.3 145.58 349.8 144.32C351.36 143.06 352.14 141.23 352.14 138.83C352.14 136.37 351.24 134.6 349.44 133.52C347.64 132.44 344.79 131.9 340.89 131.9H333.69V146.21H341.61ZM333.69 157.01V173.75H342.6C346.68 173.75 349.53 172.97 351.15 171.41C352.77 169.79 353.58 167.66 353.58 165.02C353.58 162.62 352.74 160.7 351.06 159.26C349.44 157.76 346.47 157.01 342.15 157.01H333.69ZM421.899 185L417.219 169.7H393.819L389.139 185H374.469L397.149 120.47H413.799L436.569 185H421.899ZM409.299 143.33C408.999 142.31 408.609 141.02 408.129 139.46C407.649 137.9 407.169 136.31 406.689 134.69C406.209 133.07 405.819 131.66 405.519 130.46C405.219 131.66 404.799 133.16 404.259 134.96C403.779 136.7 403.299 138.38 402.819 140C402.399 141.56 402.069 142.67 401.829 143.33L397.239 158.27H413.979L409.299 143.33ZM461.467 151.61L439.867 120.74H453.907L474.697 151.88V120.74H487.387V151.88L508.177 120.74H522.217L500.617 151.61L523.477 185H508.897L487.387 152.42V185H474.697V152.42L453.187 185H438.607L461.467 151.61ZM570.6 185H533.61V120.74H570.6V131.9H547.2V146.03H568.98V157.19H547.2V173.75H570.6V185ZM638.621 185H625.031V157.28H599.561V185H585.971V120.74H599.561V145.94H625.031V120.74H638.621V185Z" fill="white"/>
</svg>
