<svg width="413" height="108" viewBox="0 0 413 108" fill="none" xmlns="http://www.w3.org/2000/svg">
    <rect x="63" width="215" height="54" fill="#104AA1" />
    <rect x="63" y="54" width="350" height="54" fill="#94DFF7" />
    <rect width="63" height="54" fill="#BD181E" />
    <path d="M34.5 50L16 29.3355L18.6604 24.0199L33.7358 39.9668L63 0V8.57143L34.5 50Z" fill="white" />
    <path
        d="M87.48 12.44C91.2933 12.44 94.1733 12.9733 96.12 14.04C98.0667 15.1067 99.04 16.9867 99.04 19.68C99.04 21.3067 98.6533 22.68 97.88 23.8C97.1333 24.92 96.0533 25.6 94.64 25.84V26.04C95.6 26.2267 96.4667 26.56 97.24 27.04C98.0133 27.52 98.6267 28.2133 99.08 29.12C99.5333 30.0267 99.76 31.2267 99.76 32.72C99.76 35.3067 98.8267 37.3333 96.96 38.8C95.0933 40.2667 92.5333 41 89.28 41H78.6V12.44H87.48ZM88.16 23.76C89.92 23.76 91.1333 23.48 91.8 22.92C92.4933 22.36 92.84 21.5467 92.84 20.48C92.84 19.3867 92.44 18.6 91.64 18.12C90.84 17.64 89.5733 17.4 87.84 17.4H84.64V23.76H88.16ZM84.64 28.56V36H88.6C90.4133 36 91.68 35.6533 92.4 34.96C93.12 34.24 93.48 33.2933 93.48 32.12C93.48 31.0533 93.1067 30.2 92.36 29.56C91.64 28.8933 90.32 28.56 88.4 28.56H84.64ZM107.475 41V12.44H113.515V23.4H115.475C118.115 23.4 120.288 23.7733 121.995 24.52C123.702 25.2667 124.955 26.2933 125.755 27.6C126.582 28.9067 126.995 30.4 126.995 32.08C126.995 34.9067 126.062 37.1067 124.195 38.68C122.328 40.2267 119.355 41 115.275 41H107.475ZM130.475 41V12.44H136.515V41H130.475ZM115.115 36.04C116.902 36.04 118.302 35.7467 119.315 35.16C120.355 34.5733 120.875 33.5467 120.875 32.08C120.875 30.56 120.342 29.56 119.275 29.08C118.235 28.6 116.755 28.36 114.835 28.36H113.515V36.04H115.115ZM145.725 41V12.44H163.765V17.44H151.765V23.4H154.165C156.858 23.4 159.058 23.7733 160.765 24.52C162.498 25.2667 163.778 26.2933 164.605 27.6C165.432 28.9067 165.845 30.4 165.845 32.08C165.845 34.9067 164.898 37.1067 163.005 38.68C161.138 40.2267 158.152 41 154.045 41H145.725ZM153.805 36.04C155.645 36.04 157.085 35.7467 158.125 35.16C159.192 34.5733 159.725 33.5467 159.725 32.08C159.725 30.56 159.152 29.56 158.005 29.08C156.858 28.6 155.298 28.36 153.325 28.36H151.765V36.04H153.805ZM199.153 26.68C199.153 29.64 198.659 32.2267 197.673 34.44C196.713 36.6267 195.233 38.3333 193.233 39.56C191.233 40.7867 188.673 41.4 185.553 41.4C182.459 41.4 179.899 40.7867 177.873 39.56C175.873 38.3333 174.379 36.6133 173.393 34.4C172.433 32.1867 171.953 29.6 171.953 26.64C171.953 23.68 172.433 21.1067 173.393 18.92C174.379 16.7333 175.873 15.04 177.873 13.84C179.899 12.6133 182.473 12 185.593 12C188.686 12 191.233 12.6133 193.233 13.84C195.233 15.04 196.713 16.7467 197.673 18.96C198.659 21.1467 199.153 23.72 199.153 26.68ZM178.313 26.68C178.313 29.6667 178.886 32.0267 180.033 33.76C181.179 35.4667 183.019 36.32 185.553 36.32C188.139 36.32 189.993 35.4667 191.113 33.76C192.233 32.0267 192.793 29.6667 192.793 26.68C192.793 23.6667 192.233 21.3067 191.113 19.6C189.993 17.8933 188.153 17.04 185.593 17.04C183.033 17.04 181.179 17.8933 180.033 19.6C178.886 21.3067 178.313 23.6667 178.313 26.68ZM216.189 12.44C219.869 12.44 222.549 13.24 224.229 14.84C225.935 16.4133 226.789 18.5867 226.789 21.36C226.789 23.0133 226.442 24.5733 225.749 26.04C225.055 27.48 223.895 28.64 222.269 29.52C220.669 30.4 218.482 30.84 215.709 30.84H213.109V41H207.069V12.44H216.189ZM215.869 17.4H213.109V25.88H215.109C216.815 25.88 218.162 25.5467 219.149 24.88C220.162 24.1867 220.669 23.08 220.669 21.56C220.669 18.7867 219.069 17.4 215.869 17.4ZM234.186 41V12.44H240.226V23.4H242.186C244.826 23.4 246.999 23.7733 248.706 24.52C250.413 25.2667 251.666 26.2933 252.466 27.6C253.293 28.9067 253.706 30.4 253.706 32.08C253.706 34.9067 252.773 37.1067 250.906 38.68C249.039 40.2267 246.066 41 241.986 41H234.186ZM257.186 41V12.44H263.226V41H257.186ZM241.826 36.04C243.613 36.04 245.013 35.7467 246.026 35.16C247.066 34.5733 247.586 33.5467 247.586 32.08C247.586 30.56 247.053 29.56 245.986 29.08C244.946 28.6 243.466 28.36 241.546 28.36H240.226V36.04H241.826Z"
        fill="white" />
    <path
        d="M90.68 94L83.8 71.6H83.64C83.6667 72.1333 83.7067 72.9333 83.76 74C83.8133 75.0667 83.8667 76.2133 83.92 77.44C83.9733 78.64 84 79.7333 84 80.72V94H78.6V65.44H86.84L93.6 87.28H93.72L100.88 65.44H109.12V94H103.48V80.48C103.48 79.5733 103.493 78.5333 103.52 77.36C103.573 76.1867 103.613 75.08 103.64 74.04C103.693 72.9733 103.733 72.1733 103.76 71.64H103.6L96.24 94H90.68ZM125.534 70.08C124.254 70.08 122.988 70.2667 121.734 70.64C120.481 70.9867 119.254 71.4133 118.054 71.92L116.134 67.04C117.548 66.4267 119.041 65.9467 120.614 65.6C122.188 65.2267 123.868 65.04 125.654 65.04C129.868 65.04 133.134 66.3333 135.454 68.92C137.774 71.48 138.934 75.0933 138.934 79.76C138.934 82.6933 138.441 85.2667 137.454 87.48C136.468 89.6667 134.948 91.3733 132.894 92.6C130.868 93.8 128.268 94.4 125.094 94.4C123.468 94.4 121.988 94.28 120.654 94.04C119.348 93.8 118.014 93.4267 116.654 92.92V87.84C118.174 88.32 119.574 88.6933 120.854 88.96C122.161 89.2267 123.454 89.36 124.734 89.36C127.188 89.36 129.081 88.76 130.414 87.56C131.748 86.3333 132.468 84.5067 132.574 82.08H120.174V77.12H132.534C132.454 74.9067 131.788 73.1867 130.534 71.96C129.281 70.7067 127.614 70.08 125.534 70.08ZM155.978 65.44C159.658 65.44 162.338 66.24 164.018 67.84C165.724 69.4133 166.578 71.5867 166.578 74.36C166.578 76.0133 166.231 77.5733 165.538 79.04C164.844 80.48 163.684 81.64 162.058 82.52C160.458 83.4 158.271 83.84 155.498 83.84H152.898V94H146.858V65.44H155.978ZM155.658 70.4H152.898V78.88H154.898C156.604 78.88 157.951 78.5467 158.938 77.88C159.951 77.1867 160.458 76.08 160.458 74.56C160.458 71.7867 158.858 70.4 155.658 70.4ZM189.463 94L187.383 87.2H176.983L174.903 94H168.383L178.463 65.32H185.863L195.983 94H189.463ZM183.863 75.48C183.729 75.0267 183.556 74.4533 183.343 73.76C183.129 73.0667 182.916 72.36 182.703 71.64C182.489 70.92 182.316 70.2933 182.183 69.76C182.049 70.2933 181.863 70.96 181.623 71.76C181.409 72.5333 181.196 73.28 180.983 74C180.796 74.6933 180.649 75.1867 180.543 75.48L178.503 82.12H185.943L183.863 75.48ZM221.735 94L214.855 71.6H214.695C214.721 72.1333 214.761 72.9333 214.815 74C214.868 75.0667 214.921 76.2133 214.975 77.44C215.028 78.64 215.055 79.7333 215.055 80.72V94H209.655V65.44H217.895L224.655 87.28H224.775L231.935 65.44H240.175V94H234.535V80.48C234.535 79.5733 234.548 78.5333 234.575 77.36C234.628 76.1867 234.668 75.08 234.695 74.04C234.748 72.9733 234.788 72.1733 234.815 71.64H234.655L227.295 94H221.735ZM275.309 79.68C275.309 82.64 274.816 85.2267 273.829 87.44C272.869 89.6267 271.389 91.3333 269.389 92.56C267.389 93.7867 264.829 94.4 261.709 94.4C258.616 94.4 256.056 93.7867 254.029 92.56C252.029 91.3333 250.536 89.6133 249.549 87.4C248.589 85.1867 248.109 82.6 248.109 79.64C248.109 76.68 248.589 74.1067 249.549 71.92C250.536 69.7333 252.029 68.04 254.029 66.84C256.056 65.6133 258.629 65 261.749 65C264.842 65 267.389 65.6133 269.389 66.84C271.389 68.04 272.869 69.7467 273.829 71.96C274.816 74.1467 275.309 76.72 275.309 79.68ZM254.469 79.68C254.469 82.6667 255.042 85.0267 256.189 86.76C257.336 88.4667 259.176 89.32 261.709 89.32C264.296 89.32 266.149 88.4667 267.269 86.76C268.389 85.0267 268.949 82.6667 268.949 79.68C268.949 76.6667 268.389 74.3067 267.269 72.6C266.149 70.8933 264.309 70.04 261.749 70.04C259.189 70.04 257.336 70.8933 256.189 72.6C255.042 74.3067 254.469 76.6667 254.469 79.68ZM295.345 70.08C293.025 70.08 291.252 70.9467 290.025 72.68C288.798 74.4133 288.185 76.7867 288.185 79.8C288.185 82.84 288.745 85.2 289.865 86.88C291.012 88.5333 292.838 89.36 295.345 89.36C296.518 89.36 297.678 89.2267 298.825 88.96C299.998 88.6933 301.265 88.32 302.625 87.84V92.92C301.372 93.4267 300.132 93.8 298.905 94.04C297.678 94.28 296.305 94.4 294.785 94.4C291.852 94.4 289.425 93.8 287.505 92.6C285.612 91.3733 284.212 89.6667 283.305 87.48C282.398 85.2667 281.945 82.6933 281.945 79.76C281.945 76.88 282.465 74.3333 283.505 72.12C284.545 69.9067 286.052 68.1733 288.025 66.92C290.025 65.6667 292.465 65.04 295.345 65.04C296.758 65.04 298.172 65.2267 299.585 65.6C301.025 65.9467 302.398 66.4267 303.705 67.04L301.745 71.96C300.678 71.4533 299.598 71.0133 298.505 70.64C297.438 70.2667 296.385 70.08 295.345 70.08ZM333.974 94H327.094L316.734 79.52V94H310.694V65.44H316.734V79.28L326.974 65.44H333.414L323.014 79.16L333.974 94ZM348.449 65.44C352.262 65.44 355.142 65.9733 357.089 67.04C359.035 68.1067 360.009 69.9867 360.009 72.68C360.009 74.3067 359.622 75.68 358.849 76.8C358.102 77.92 357.022 78.6 355.609 78.84V79.04C356.569 79.2267 357.435 79.56 358.209 80.04C358.982 80.52 359.595 81.2133 360.049 82.12C360.502 83.0267 360.729 84.2267 360.729 85.72C360.729 88.3067 359.795 90.3333 357.929 91.8C356.062 93.2667 353.502 94 350.249 94H339.569V65.44H348.449ZM349.129 76.76C350.889 76.76 352.102 76.48 352.769 75.92C353.462 75.36 353.809 74.5467 353.809 73.48C353.809 72.3867 353.409 71.6 352.609 71.12C351.809 70.64 350.542 70.4 348.809 70.4H345.609V76.76H349.129ZM345.609 81.56V89H349.569C351.382 89 352.649 88.6533 353.369 87.96C354.089 87.24 354.449 86.2933 354.449 85.12C354.449 84.0533 354.075 83.2 353.329 82.56C352.609 81.8933 351.289 81.56 349.369 81.56H345.609ZM368.444 94V65.44H374.484V76.4H376.444C379.084 76.4 381.257 76.7733 382.964 77.52C384.67 78.2667 385.924 79.2933 386.724 80.6C387.55 81.9067 387.964 83.4 387.964 85.08C387.964 87.9067 387.03 90.1067 385.164 91.68C383.297 93.2267 380.324 94 376.244 94H368.444ZM391.444 94V65.44H397.484V94H391.444ZM376.084 89.04C377.87 89.04 379.27 88.7467 380.284 88.16C381.324 87.5733 381.844 86.5467 381.844 85.08C381.844 83.56 381.31 82.56 380.244 82.08C379.204 81.6 377.724 81.36 375.804 81.36H374.484V89.04H376.084Z"
        fill="white" />
</svg>